<svg width="190" height="182" xmlns="http://www.w3.org/2000/svg" xmlns:xlink="http://www.w3.org/1999/xlink" xml:space="preserve" overflow="hidden"><g transform="translate(-445 -195)"><path d="M279.425 113.045 263.448 113.386 261.886 118.466 252.263 118.682 251.581 120.567C224.258 121.41 198.569 135.198 190.203 141.696L244.759 139.596 243.413 143.976 257.505 143.671 235.101 245.944 254.561 239.733 273.303 143.348 283.985 143.114 285.313 138.249 354.806 136.364C341.845 128.519 308.866 119.938 290.286 120.172L290.914 117.856 278.438 118.125 279.425 113.045Z" fill="#F58220" transform="matrix(1 0 0 1.0052 268.13 112.987)"/><path d="M185.41 153.724 180.652 171.963 191.226 171.461 182.106 207.491C178.103 226.071 185.428 238.638 197.168 239.625 207.491 240.505 225.102 236.842 230.344 220.506 235.55 204.367 247.901 151.426 247.901 151.426L227.166 152.198 214.6 206.396C212.571 213.864 208.945 217.795 206.234 216.862 203.523 215.946 203.164 212.517 205.193 203.99 207.221 195.463 217.508 152.485 217.508 152.485L185.41 153.724Z" fill="#F58220" transform="matrix(1 0 0 1.0052 268.13 112.987)"/><path d="M279.748 150.349 276.481 167.996 281.651 167.817 275.422 199.61 270.144 200.436 265.53 224.079 312.834 211.763 315.975 194.368 293.571 197.186 294.523 190.885 305.276 189.575 308.4 171.73 298.041 172.556 298.939 166.757 314.97 165.573 317.699 148.985Z" fill="#F58220" transform="matrix(1 0 0 1.0052 268.13 112.987)"/><path d="M362.112 147.261 324.198 148.68 321.523 164.926 327.214 164.442 319.566 210.202 334.287 206.378 337.805 187.438C361.502 180.868 362.202 150.475 362.112 147.261M339.762 174.082 341.521 162.377 349.654 161.892C349.708 163.706 345.794 172.61 339.762 174.082" fill="#F58220" transform="matrix(1 0 0 1.0052 268.13 112.987)"/><path d="M270.521 232.265C270.521 233.952 269.156 235.317 267.469 235.317 265.781 235.317 264.417 233.952 264.417 232.265 264.417 230.577 265.781 229.213 267.469 229.213 269.156 229.213 270.521 230.577 270.521 232.265M269.821 232.265C269.821 230.918 268.761 229.823 267.469 229.823 266.176 229.823 265.135 230.9 265.135 232.265 265.135 233.611 266.176 234.706 267.469 234.706 268.779 234.706 269.821 233.611 269.821 232.265M268.169 232.678 268.797 233.844 268.151 233.844 267.612 232.749 266.948 232.749 266.948 233.827 266.338 233.827 266.338 230.631 267.63 230.631C268.384 230.631 268.725 230.954 268.761 231.529 268.779 231.618 268.779 231.69 268.761 231.762 268.743 232.211 268.546 232.534 268.169 232.678M267.63 232.211C267.971 232.211 268.151 232.049 268.187 231.762L268.187 231.547C268.151 231.295 267.971 231.152 267.63 231.152L266.93 231.152 266.93 232.211 267.63 232.211Z" fill="#F58220" transform="matrix(1 0 0 1.0052 268.13 112.987)"/></g></svg>